<svg aria-hidden="true" style="position: absolute; width: 0; height: 0; overflow: hidden;" version="1.1" xmlns="http://www.w3.org/2000/svg" xmlns:xlink="http://www.w3.org/1999/xlink">
<defs>
<symbol id="icon-clock" viewBox="0 0 32 32">
<path d="M16 0c8.837 0 16 7.163 16 16s-7.163 16-16 16v0c-8.837 0-16-7.163-16-16s7.163-16 16-16v0zM14.5 7.5v8.5c0 0.5 0.25 0.969 0.669 1.25l6 4c0.688 0.462 1.619 0.275 2.081-0.419s0.275-1.619-0.419-2.081l-5.331-3.55v-7.7c0-0.831-0.669-1.5-1.5-1.5s-1.5 0.669-1.5 1.5z"></path>
</symbol>
<symbol id="icon-user" viewBox="0 0 28 32">
<path d="M14 16c4.418 0 8-3.582 8-8s-3.582-8-8-8v0c-4.418 0-8 3.582-8 8s3.582 8 8 8v0zM11.144 19c-6.156 0-11.144 4.988-11.144 11.144 0 1.025 0.831 1.856 1.856 1.856h24.288c1.025 0 1.856-0.831 1.856-1.856 0-6.156-4.988-11.144-11.144-11.144h-5.713z"></path>
</symbol>
<symbol id="icon-arrow-left" viewBox="0 0 32 32">
<path d="M0.588 14.588c-0.781 0.781-0.781 2.050 0 2.831l8 8c0.781 0.781 2.050 0.781 2.831 0s0.781-2.050 0-2.831l-4.588-4.587h23.169c1.106 0 2-0.894 2-2s-0.894-2-2-2h-23.169l4.588-4.588c0.781-0.781 0.781-2.050 0-2.831s-2.050-0.781-2.831 0l-8 8z"></path>
</symbol>
<symbol id="icon-arrow-right" viewBox="0 0 32 32">
<path d="M31.413 17.413c0.781-0.781 0.781-2.050 0-2.831l-8-8c-0.781-0.781-2.050-0.781-2.831 0s-0.781 2.050 0 2.831l4.588 4.588h-23.169c-1.106 0-2 0.894-2 2s0.894 2 2 2h23.169l-4.587 4.587c-0.781 0.781-0.781 2.050 0 2.831s2.050 0.781 2.831 0l8-8z"></path>
</symbol>
<symbol id="icon-times" viewBox="0 0 20 32">
<path d="M12.975 16l6.732-6.732c0.389-0.389 0.389-1.021 0-1.411l-1.564-1.564c-0.389-0.389-1.021-0.389-1.411 0l-6.732 6.733-6.732-6.732c-0.389-0.389-1.021-0.389-1.411 0l-1.564 1.564c-0.389 0.389-0.389 1.021 0 1.411l6.732 6.732-6.732 6.733c-0.389 0.389-0.389 1.021 0 1.411l1.564 1.564c0.389 0.389 1.021 0.389 1.411 0l6.732-6.733 6.733 6.733c0.389 0.389 1.021 0.389 1.411 0l1.564-1.564c0.389-0.389 0.389-1.021 0-1.411l-6.733-6.732z"></path>
</symbol>
<symbol id="icon-angle-down" viewBox="0 0 28 32">
<path d="M12.588 23.413c0.781 0.781 2.050 0.781 2.831 0l10-10c0.781-0.781 0.781-2.050 0-2.831s-2.050-0.781-2.831 0l-8.588 8.588-8.588-8.581c-0.781-0.781-2.050-0.781-2.831 0s-0.781 2.050 0 2.831l10 10z"></path>
</symbol>
<symbol id="icon-angle-up" viewBox="0 0 28 32">
<path d="M12.588 8.588c0.781-0.781 2.050-0.781 2.831 0l10 10c0.781 0.781 0.781 2.050 0 2.831s-2.050 0.781-2.831 0l-8.588-8.588-8.588 8.581c-0.781 0.781-2.050 0.781-2.831 0s-0.781-2.050 0-2.831l10-10z"></path>
</symbol>
<symbol id="icon-calendar" viewBox="0 0 28 32">
<path d="M8 0c1.106 0 2 0.894 2 2v2h8v-2c0-1.106 0.894-2 2-2s2 0.894 2 2v2h3c1.656 0 3 1.344 3 3v3h-28v-3c0-1.656 1.344-3 3-3h3v-2c0-1.106 0.894-2 2-2zM0 12h28v17c0 1.656-1.344 3-3 3h-22c-1.656 0-3-1.344-3-3v-17zM4 17v2c0 0.55 0.45 1 1 1h2c0.55 0 1-0.45 1-1v-2c0-0.55-0.45-1-1-1h-2c-0.55 0-1 0.45-1 1zM12 17v2c0 0.55 0.45 1 1 1h2c0.55 0 1-0.45 1-1v-2c0-0.55-0.45-1-1-1h-2c-0.55 0-1 0.45-1 1zM21 16c-0.55 0-1 0.45-1 1v2c0 0.55 0.45 1 1 1h2c0.55 0 1-0.45 1-1v-2c0-0.55-0.45-1-1-1h-2zM4 25v2c0 0.55 0.45 1 1 1h2c0.55 0 1-0.45 1-1v-2c0-0.55-0.45-1-1-1h-2c-0.55 0-1 0.45-1 1zM13 24c-0.55 0-1 0.45-1 1v2c0 0.55 0.45 1 1 1h2c0.55 0 1-0.45 1-1v-2c0-0.55-0.45-1-1-1h-2zM20 25v2c0 0.55 0.45 1 1 1h2c0.55 0 1-0.45 1-1v-2c0-0.55-0.45-1-1-1h-2c-0.55 0-1 0.45-1 1z"></path>
</symbol>
<symbol id="icon-circle-notch" viewBox="0 0 32 32">
<path d="M13.919 2.006c0.313 1.056-0.287 2.175-1.344 2.488-4.963 1.481-8.575 6.075-8.575 11.506 0 6.625 5.375 12 12 12s12-5.375 12-12c0-5.431-3.613-10.025-8.569-11.506-1.056-0.313-1.663-1.431-1.344-2.487s1.431-1.663 2.488-1.344c6.606 1.969 11.425 8.087 11.425 15.337 0 8.837-7.163 16-16 16s-16-7.163-16-16c0-7.25 4.819-13.369 11.431-15.338 1.056-0.313 2.175 0.287 2.487 1.344z"></path>
</symbol>
<symbol id="icon-comments" viewBox="0 0 40 32">
<path d="M13 22c7.181 0 13-4.925 13-11s-5.819-11-13-11-13 4.925-13 11c0 2.412 0.919 4.644 2.475 6.462-0.219 0.587-0.544 1.106-0.887 1.544-0.3 0.387-0.606 0.688-0.831 0.894-0.113 0.1-0.206 0.181-0.269 0.231-0.031 0.025-0.056 0.044-0.069 0.050l-0.013 0.012s0 0 0 0 0 0 0 0c-0.344 0.256-0.494 0.706-0.356 1.113s0.519 0.694 0.95 0.694c1.362 0 2.737-0.35 3.881-0.781 0.575-0.219 1.112-0.462 1.575-0.712 1.925 0.95 4.156 1.494 6.544 1.494zM28 11c0 7.019-6.194 12.306-13.531 12.938 1.519 4.65 6.556 8.063 12.531 8.063 2.387 0 4.619-0.544 6.544-1.494 0.469 0.25 1 0.494 1.575 0.712 1.144 0.431 2.519 0.781 3.881 0.781 0.431 0 0.819-0.281 0.95-0.694s-0.013-0.863-0.362-1.119c0 0 0 0 0 0s0 0 0 0l-0.013-0.012c-0.013-0.012-0.038-0.025-0.069-0.050-0.063-0.050-0.156-0.125-0.269-0.231-0.225-0.206-0.531-0.506-0.831-0.894-0.344-0.438-0.669-0.962-0.888-1.544 1.556-1.813 2.475-4.044 2.475-6.463 0-5.8-5.306-10.556-12.038-10.969 0.025 0.319 0.038 0.644 0.038 0.969z"></path>
</symbol>
<symbol id="icon-eye" viewBox="0 0 36 32">
<path d="M18 2c-5.050 0-9.094 2.3-12.037 5.037-2.925 2.713-4.881 5.963-5.806 8.194-0.206 0.494-0.206 1.044 0 1.538 0.925 2.231 2.881 5.481 5.806 8.194 2.944 2.738 6.987 5.038 12.037 5.038s9.094-2.3 12.038-5.038c2.925-2.719 4.881-5.962 5.813-8.194 0.206-0.494 0.206-1.044 0-1.537-0.931-2.231-2.888-5.481-5.813-8.194-2.944-2.737-6.988-5.037-12.038-5.037zM9 16c0-4.971 4.029-9 9-9s9 4.029 9 9v0c0 4.971-4.029 9-9 9s-9-4.029-9-9v0zM18 12c0 2.206-1.794 4-4 4-0.444 0-0.869-0.075-1.269-0.206-0.344-0.113-0.744 0.1-0.731 0.462 0.019 0.431 0.081 0.863 0.2 1.294 0.856 3.2 4.15 5.1 7.35 4.244s5.1-4.15 4.244-7.35c-0.694-2.594-2.988-4.338-5.538-4.444-0.363-0.012-0.575 0.381-0.462 0.731 0.131 0.4 0.206 0.825 0.206 1.269z"></path>
</symbol>
<symbol id="icon-facebook" viewBox="0 0 20 32">
<path d="M5 18.706v13.294h7.25v-13.294h5.406l1.125-6.113h-6.531v-2.162c0-3.231 1.269-4.469 4.544-4.469 1.019 0 1.837 0.025 2.313 0.075v-5.544c-0.894-0.244-3.081-0.494-4.344-0.494-6.681 0-9.762 3.156-9.762 9.963v2.631h-4.125v6.113h4.125z"></path>
</symbol>
<symbol id="icon-link" viewBox="0 0 40 32">
<path d="M36.237 16.731c3.531-3.531 3.531-9.25 0-12.781-3.125-3.125-8.050-3.531-11.644-0.962l-0.1 0.069c-0.9 0.644-1.106 1.894-0.462 2.788s1.894 1.106 2.788 0.463l0.1-0.069c2.006-1.431 4.75-1.206 6.488 0.537 1.969 1.969 1.969 5.156 0 7.125l-7.012 7.025c-1.969 1.969-5.156 1.969-7.125 0-1.744-1.744-1.969-4.488-0.538-6.488l0.069-0.1c0.644-0.9 0.431-2.15-0.462-2.787s-2.15-0.431-2.787 0.463l-0.069 0.1c-2.575 3.588-2.169 8.512 0.956 11.637 3.531 3.531 9.25 3.531 12.781 0l7.019-7.019zM3.763 15.269c-3.531 3.531-3.531 9.25 0 12.781 3.125 3.125 8.050 3.531 11.644 0.962l0.1-0.069c0.9-0.644 1.106-1.894 0.463-2.788s-1.894-1.106-2.787-0.462l-0.1 0.069c-2.006 1.431-4.75 1.206-6.487-0.538-1.969-1.975-1.969-5.162 0-7.131l7.013-7.019c1.969-1.969 5.156-1.969 7.125 0 1.744 1.744 1.969 4.488 0.538 6.494l-0.069 0.1c-0.644 0.9-0.431 2.15 0.462 2.788s2.15 0.431 2.788-0.462l0.069-0.1c2.575-3.594 2.169-8.519-0.956-11.644-3.531-3.531-9.25-3.531-12.781 0l-7.019 7.019z"></path>
</symbol>
<symbol id="icon-linkedin" viewBox="0 0 28 32">
<path d="M6.268 28h-5.805v-18.694h5.805zM3.362 6.756c-1.856 0-3.362-1.537-3.362-3.394s1.505-3.362 3.362-3.362 3.362 1.505 3.362 3.362v0c0 1.856-1.506 3.394-3.362 3.394zM27.994 28h-5.793v-9.1c0-2.169-0.044-4.95-3.018-4.95-3.018 0-3.481 2.356-3.481 4.794v9.256h-5.799v-18.694h5.568v2.55h0.081c0.775-1.469 2.668-3.019 5.492-3.019 5.875 0 6.955 3.869 6.955 8.894v10.269z"></path>
</symbol>
<symbol id="icon-play" viewBox="0 0 24 32">
<path d="M4.563 2.438c-0.925-0.569-2.087-0.587-3.031-0.056s-1.531 1.531-1.531 2.619v22c0 1.087 0.588 2.087 1.531 2.619s2.106 0.506 3.031-0.056l18-11c0.894-0.544 1.438-1.512 1.438-2.563s-0.544-2.012-1.438-2.563l-18-11z"></path>
</symbol>
<symbol id="icon-search" viewBox="0 0 32 32">
<path d="M31.781 30.1l-8.063-8.063c-0.144-0.144-0.331-0.219-0.531-0.219h-0.644c2.144-2.319 3.456-5.413 3.456-8.819 0-7.181-5.819-13-13-13s-13 5.819-13 13 5.819 13 13 13c3.406 0 6.5-1.313 8.819-3.45v0.637c0 0.2 0.081 0.387 0.219 0.531l8.063 8.063c0.294 0.294 0.769 0.294 1.063 0l0.619-0.619c0.294-0.294 0.294-0.769 0-1.063zM13 24c-6.081 0-11-4.919-11-11s4.919-11 11-11 11 4.919 11 11-4.919 11-11 11z"></path>
</symbol>
<symbol id="icon-tumblr" viewBox="0 0 20 32">
<path d="M19.363 30.019c-0.85 0.906-3.125 1.981-6.088 1.981-7.55 0-9.188-5.55-9.188-8.788v-9h-2.969c-0.344 0-0.625-0.281-0.625-0.625v-4.25c0-0.45 0.281-0.85 0.706-1 3.875-1.362 5.094-4.75 5.269-7.319 0.050-0.688 0.406-1.019 1.006-1.019h4.431c0.344 0 0.625 0.281 0.625 0.625v7.2h5.188c0.344 0 0.625 0.275 0.625 0.619v5.106c0 0.344-0.281 0.625-0.625 0.625h-5.213v8.325c0 2.137 1.481 3.35 4.25 2.238 0.3-0.119 0.563-0.2 0.794-0.137 0.219 0.056 0.363 0.212 0.462 0.494l1.375 4.019c0.113 0.313 0.206 0.663-0.025 0.906z"></path>
</symbol>
<symbol id="icon-twitter" viewBox="0 0 32 32">
<path d="M24.325 3h4.412l-9.637 11.012 11.338 14.988h-8.875l-6.956-9.087-7.95 9.087h-4.419l10.306-11.781-10.869-14.219h9.1l6.281 8.306 7.269-8.306zM22.775 26.363h2.444l-15.775-20.863h-2.625l15.956 20.863z"></path>
</symbol>
<symbol id="icon-youtube" viewBox="0 0 36 32">
<path d="M34.353 7.755c-0.393-1.478-1.549-2.642-3.018-3.037-2.662-0.718-13.336-0.718-13.336-0.718s-10.674 0-13.336 0.718c-1.469 0.395-2.625 1.559-3.018 3.037-0.713 2.679-0.713 8.269-0.713 8.269s0 5.59 0.713 8.269c0.393 1.478 1.549 2.594 3.018 2.989 2.662 0.718 13.336 0.718 13.336 0.718s10.674 0 13.336-0.718c1.469-0.395 2.625-1.511 3.018-2.989 0.713-2.679 0.713-8.269 0.713-8.269s0-5.59-0.713-8.269zM14.509 21.099v-10.15l8.921 5.075-8.921 5.075z"></path>
</symbol>
</defs>
</svg>
